<svg width="22" height="22" fill="none" xmlns="http://www.w3.org/2000/svg"><path fill-rule="evenodd" clip-rule="evenodd" d="M10.97 21.94c6.051 0 10.97-4.919 10.97-10.97C21.94 4.9 17.04 0 10.97 0 4.919 0 0 4.919 0 10.97a10.97 10.97 0 0 0 6.944 10.208 1.983 1.983 0 0 1-.02-.092 4.245 4.245 0 0 1-.063-.626l-.012-.21c-.037-1.001.037-2.004.297-2.969.22-.845.42-1.697.62-2.548.138-.587.276-1.174.42-1.758.074-.26.037-.483-.037-.743-.372-1.188-.26-2.339.482-3.34.353-.484.947-.688 1.56-.595.575.074.927.446 1.076 1.002.13.483.056.947-.056 1.411-.094.402-.215.796-.337 1.19-.143.463-.287.928-.387 1.409a2.69 2.69 0 0 0 .037 1.15c.39 1.411 2.265 1.114 3.156.446.613-.464 1.058-1.132 1.337-1.837a5.96 5.96 0 0 0 .463-2.47c0-.612-.074-1.373-.315-1.948-.575-1.392-1.893-2.358-3.36-2.562-1.652-.241-3.137.13-4.436 1.337-1.43 1.355-1.838 4.028-.668 5.68.148.222.148.352.093.594-.019.086-.035.173-.052.26a5.87 5.87 0 0 1-.115.52l-.005.014c-.073.237-.15.487-.422.505-.205.019-.39-.093-.539-.204-.334-.26-.594-.631-.78-1.003a2.388 2.388 0 0 0-.148-.269c-.04-.066-.079-.13-.111-.195-.501-.983-.743-2.079-.631-3.174.037-.445.111-.91.241-1.355.464-1.652 1.615-3.025 3.1-3.86a8.531 8.531 0 0 1 1.336-.576c1.578-.501 3.341-.446 4.92.111 1.15.409 2.245 1.058 3.006 2.024 1.262 1.596 1.615 3.452 1.225 5.457-.297 1.54-.946 2.895-2.116 3.972-.427.39-.89.668-1.41.891-.26.111-.52.223-.799.297-1.317.408-2.821.018-3.73-1.02-.093.37-.353 1.298-.427 1.447l-.03.11c-.12.467-.244.948-.416 1.412a9.802 9.802 0 0 1-1.095 2.209 2.05 2.05 0 0 1-.12.165 10.97 10.97 0 0 0 3.294.503Z" fill="#fff"/></svg>