<svg width="22" height="22" viewBox="0 0 22 22" fill="none" xmlns="http://www.w3.org/2000/svg">
<path fill-rule="evenodd" clip-rule="evenodd" d="M10.97 21.9401C17.0212 21.9401 21.9401 17.0212 21.9401 10.97C21.9401 4.90033 17.0398 0 10.97 0C4.91889 0 0 4.91889 0 10.97C0 15.6146 2.8802 19.5745 6.94397 21.1779C6.93605 21.1462 6.92933 21.1153 6.92351 21.0862C6.88175 20.8774 6.87131 20.6686 6.86087 20.4597C6.85739 20.3901 6.85391 20.3205 6.84927 20.2509C6.81214 19.2486 6.88639 18.2462 7.14626 17.281C7.36581 16.4357 7.56589 15.584 7.76569 14.7334C7.90372 14.1457 8.04162 13.5586 8.18572 12.9747C8.25997 12.7148 8.22284 12.4921 8.1486 12.2322C7.77736 11.0442 7.88873 9.8934 8.6312 8.89106C8.98388 8.40845 9.57786 8.20428 10.1904 8.29709C10.7658 8.37134 11.1185 8.74257 11.267 9.29943C11.3969 9.78203 11.3227 10.2461 11.2113 10.7101C11.1173 11.1118 10.9957 11.5057 10.8738 11.9007C10.7309 12.3635 10.5875 12.8281 10.4874 13.3088C10.4131 13.6615 10.4317 14.1069 10.5245 14.4596C10.9143 15.8703 12.7891 15.5733 13.68 14.9051C14.2926 14.4411 14.7381 13.7728 15.0165 13.0675C15.3506 12.2508 15.4991 11.4712 15.4805 10.5988C15.4805 9.98621 15.4063 9.22518 15.165 8.64976C14.5896 7.25762 13.2717 6.29241 11.8053 6.08823C10.1533 5.84693 8.66833 6.21816 7.369 7.42468C5.93974 8.77969 5.53138 11.4526 6.70077 13.1046C6.84927 13.3273 6.84927 13.4573 6.79358 13.6986C6.77502 13.7852 6.75852 13.8718 6.74202 13.9584C6.70902 14.1317 6.67602 14.3049 6.62652 14.4782C6.62503 14.483 6.62354 14.4879 6.62205 14.4927C6.54921 14.7298 6.47244 14.9797 6.1996 14.9979C5.99542 15.0165 5.8098 14.9051 5.66131 14.7937C5.3272 14.5339 5.06733 14.1626 4.88171 13.7914C4.83969 13.6968 4.78577 13.6082 4.73342 13.5222C4.69328 13.4562 4.65407 13.3918 4.62185 13.3273C4.12068 12.3436 3.87937 11.2484 3.99074 10.1533C4.02787 9.70779 4.10212 9.24374 4.23205 8.79825C4.69609 7.14625 5.84693 5.77268 7.33187 4.93739C7.7588 4.71465 8.20428 4.51047 8.66833 4.36198C10.2461 3.86081 12.0095 3.91649 13.5872 4.47335C14.738 4.88171 15.8332 5.53137 16.5942 6.49659C17.8564 8.09291 18.2091 9.94909 17.8193 11.9538C17.5223 13.4944 16.8727 14.8494 15.7033 15.926C15.2763 16.3158 14.8123 16.5942 14.2926 16.817L14.2926 16.817C14.0327 16.9283 13.7728 17.0397 13.4944 17.114C12.1765 17.5223 10.673 17.1325 9.76348 16.0931C9.67067 16.4643 9.4108 17.3924 9.33655 17.5409C9.327 17.5777 9.31744 17.6147 9.30787 17.6517C9.18721 18.1184 9.06304 18.5986 8.89107 19.063C8.61264 19.8426 8.25997 20.585 7.79592 21.2718C7.7642 21.3194 7.72344 21.379 7.6758 21.437C8.71596 21.7639 9.82265 21.9401 10.97 21.9401Z" fill="white"/>
</svg>
