<svg width="112" height="113" fill="none" xmlns="http://www.w3.org/2000/svg"><path d="m102.332 81.278-5.389-3.262-.396.654 5.389 3.263.396-.655Zm-1.677 2.772-1.138-3.855-4.322.708-.49.808 4.347-.714 1.113 3.861.49-.808Zm-9.747 1.169-.167-.695a.904.904 0 0 0-.298.044 1.383 1.383 0 0 0-.389.155c-.137.07-.259.161-.365.276a1.676 1.676 0 0 0-.319.477 1.054 1.054 0 0 0 .04 1.005c.087.17.22.34.401.506l5.022 4.644.489-.528-4.956-4.583c-.216-.2-.32-.391-.315-.574-.003-.182.043-.324.136-.425a.935.935 0 0 1 .353-.25.625.625 0 0 1 .368-.052Zm-4.381 9.801c.28.383.449.784.504 1.205.051.424-.005.83-.167 1.216a2.333 2.333 0 0 1-.795.986 2.303 2.303 0 0 1-2.383.252 2.536 2.536 0 0 1-1.004-.837 2.537 2.537 0 0 1-.497-1.21 2.298 2.298 0 0 1 .955-2.196 2.332 2.332 0 0 1 2.39-.258c.384.18.717.46.997.842Zm.653-.479a3.454 3.454 0 0 0-.944-.892 3.186 3.186 0 0 0-1.157-.435 3.228 3.228 0 0 0-1.224.05c-.41.1-.8.285-1.167.555a3.234 3.234 0 0 0-.88.947c-.215.366-.353.75-.415 1.153a3.07 3.07 0 0 0 .075 1.228c.104.415.29.807.56 1.174a3.3 3.3 0 0 0 .953.887c.36.227.74.371 1.143.433.407.067.815.05 1.225-.05.409-.092.8-.274 1.172-.547.368-.27.66-.588.874-.954a3.11 3.11 0 0 0 .353-2.38 3.408 3.408 0 0 0-.568-1.169Zm-2.572 6.353.656-8.965-.634.019-.663 8.97.641-.024Zm-5.19 2.247-2.693-5.695-2.93 1.385.308.65 2.238-1.057 2.385 5.044.692-.327Zm-8.302 3.234-1.69-6.069-.737.205 1.69 6.069.737-.205Zm-12.08-1.768-2.092.146c.037-.249.108-.486.212-.709.1-.224.233-.426.4-.606.168-.18.375-.326.62-.44a2.43 2.43 0 0 1 .825-.193c.443-.03.851.046 1.225.231.374.184.681.455.922.811.236.356.37.777.404 1.262.034.491-.04.926-.225 1.306a2.37 2.37 0 0 1-.801.931 2.356 2.356 0 0 1-1.181.398c-.48.033-.902-.034-1.268-.201a2.045 2.045 0 0 1-.88-.723l-.505.531c.2.281.438.511.716.69.27.179.575.309.91.387.331.08.69.106 1.08.079a3.276 3.276 0 0 0 1.249-.331c.378-.183.7-.431.968-.744.267-.307.468-.664.602-1.07a3.5 3.5 0 0 0 .143-1.309 3.504 3.504 0 0 0-.323-1.277 3.194 3.194 0 0 0-.746-.986 3.102 3.102 0 0 0-1.061-.602 3.39 3.39 0 0 0-1.282-.146 3 3 0 0 0-1.257.349 2.815 2.815 0 0 0-.901.794 3.19 3.19 0 0 0-.511 1.082 3.934 3.934 0 0 0-.11 1.262l2.917-.203-.05-.719Zm-17.801.935-2.689-.84-.215.687 2.69.84.214-.687Zm.751-2.406-2.603-.813-.215.688 2.603.812.215-.687Zm-.562 3.219 1.878-6.014-.73-.228-1.878 6.014.73.228Zm-6.851-7.443-2.932-1.58-.103.763 2.456 1.323.58-.506Zm-2.867 1.85.253-2.747.022-.193.216-2.337-.753-.405-.561 7.211 5.711-4.437-.752-.406-1.874 1.506-.14.108-2.122 1.7Zm-5.397-7.152.735.075c.071-.3.103-.614.095-.941a2.79 2.79 0 0 0-.212-.94 2.14 2.14 0 0 0-.594-.777 2.068 2.068 0 0 0-1.34-.487c-.243 0-.475.053-.696.158a1.685 1.685 0 0 0-.603.47 1.635 1.635 0 0 0-.392 1.325c.023.215.076.42.157.612a4.2 4.2 0 0 0 .257.52c.2.332.343.615.428.85.076.236.103.438.08.606a.927.927 0 0 1-.209.46.771.771 0 0 1-.531.271c-.228.03-.473-.066-.735-.285a1.234 1.234 0 0 1-.384-.51 1.462 1.462 0 0 1-.102-.565 2.59 2.59 0 0 1 .066-.543l-.746-.13a2.5 2.5 0 0 0-.08.754c.008.272.07.539.187.8.11.264.295.505.557.724.272.227.56.374.864.44.3.071.589.063.866-.026a1.53 1.53 0 0 0 .717-.493c.184-.22.299-.442.343-.663.04-.225.036-.446-.009-.663a3.042 3.042 0 0 0-.207-.608 7.153 7.153 0 0 0-.268-.494 5.315 5.315 0 0 1-.334-.653 1.422 1.422 0 0 1-.14-.646c.006-.214.1-.428.28-.645a.92.92 0 0 1 .691-.35c.276-.011.543.09.8.306.194.162.332.347.415.557.082.21.124.44.126.692a5.04 5.04 0 0 1-.082.8Zm-7.628-5.82-2.692-3.38-.563.45 2.692 3.378.563-.449Zm-4.906-.96 4.927-3.925-.476-.598-4.928 3.925.477.599Zm2.636 3.31 4.927-3.927-.477-.598-4.927 3.926.477.598Zm-6.214-9.098 5.585-2.916-.354-.678-5.585 2.916.354.678Zm-.73-9.6a2.596 2.596 0 0 1-1.304.07 2.333 2.333 0 0 1-1.75-1.647 2.303 2.303 0 0 1 .564-2.329 2.545 2.545 0 0 1 1.126-.665 2.54 2.54 0 0 1 1.306-.06 2.298 2.298 0 0 1 1.748 1.638 2.333 2.333 0 0 1-.562 2.337c-.298.302-.674.52-1.128.656Zm.231.777c.437-.13.823-.327 1.158-.59.333-.268.6-.583.799-.943.194-.358.315-.748.365-1.17.043-.42 0-.848-.13-1.285a3.234 3.234 0 0 0-.596-1.147 3.23 3.23 0 0 0-.946-.779 3.07 3.07 0 0 0-1.182-.342 3.344 3.344 0 0 0-1.295.132 3.298 3.298 0 0 0-1.155.599 2.955 2.955 0 0 0-.792.931c-.2.36-.321.75-.365 1.17-.051.416-.011.846.121 1.288.13.437.332.819.604 1.144a3.109 3.109 0 0 0 2.123 1.133 3.41 3.41 0 0 0 1.291-.141ZM3.806 57.147l4.675-.362-4.621 5.142 6.595-.51-.06-.763-4.674.362 4.62-5.142-6.595.51.06.763ZM5.769 41.95l5.988 1.958.238-.727-5.988-1.959-.238.727Zm1.007-3.08 1.98 3.498 4.05-1.668.294-.898-4.072 1.68-1.958-3.51-.294.898Zm9.23-3.343.32.638a.906.906 0 0 0 .28-.11c.113-.053.227-.132.343-.239a1.27 1.27 0 0 0 .294-.35 1.68 1.68 0 0 0 .202-.538 1.055 1.055 0 0 0-.265-.97 1.856 1.856 0 0 0-.506-.402l-5.942-3.388-.357.626 5.864 3.343c.255.145.401.308.437.487.044.177.032.326-.036.446a.933.933 0 0 1-.288.322.624.624 0 0 1-.346.135Zm2.049-10.539a2.596 2.596 0 0 1-.763-1.059 2.332 2.332 0 0 1 .44-2.363 2.303 2.303 0 0 1 2.263-.785c.419.083.808.28 1.168.588.36.309.612.664.757 1.066a2.298 2.298 0 0 1-.433 2.356 2.332 2.332 0 0 1-2.27.791 2.596 2.596 0 0 1-1.162-.594Zm-.527.614c.346.297.72.516 1.122.655.406.136.814.19 1.225.163.406-.031.8-.14 1.181-.326a3.27 3.27 0 0 0 1.011-.805c.301-.35.515-.724.642-1.12.127-.406.175-.812.144-1.218a3.069 3.069 0 0 0-.351-1.18 3.34 3.34 0 0 0-.811-1.016 3.3 3.3 0 0 0-1.128-.649 2.973 2.973 0 0 0-1.213-.163c-.41.027-.804.136-1.181.326a3.132 3.132 0 0 0-1.018.799 3.174 3.174 0 0 0-.636 1.127 3.04 3.04 0 0 0-.143 1.217c.03.406.144.8.338 1.18.195.373.467.71.818 1.01Zm1.068-6.77 1.39 8.881.613-.161-1.384-8.888-.62.168Zm4.548-3.363 3.911 4.939 2.54-2.012-.447-.564-1.94 1.536-3.465-4.374-.6.475Zm7.354-5.028 3.019 5.53.671-.367-3.019-5.53-.671.367ZM42.665 9.43l2.005-.615c.02.25.005.497-.047.739-.045.24-.13.466-.252.68-.123.213-.29.403-.504.569a2.422 2.422 0 0 1-.76.374 2.35 2.35 0 0 1-1.246.053 2.366 2.366 0 0 1-1.082-.581 2.573 2.573 0 0 1-.678-1.138c-.145-.47-.17-.912-.077-1.323a2.37 2.37 0 0 1 .57-1.088 2.35 2.35 0 0 1 1.06-.655c.46-.14.886-.171 1.281-.092a2.04 2.04 0 0 1 1.021.506l.371-.632a2.623 2.623 0 0 0-.853-.51 2.785 2.785 0 0 0-.975-.171 3.553 3.553 0 0 0-1.069.168 3.276 3.276 0 0 0-1.142.604 2.931 2.931 0 0 0-.774.944c-.19.36-.306.753-.344 1.179-.033.424.019.86.156 1.307.138.448.339.838.604 1.17.271.332.587.596.95.792.359.19.749.307 1.17.347.418.035.845-.015 1.281-.149.459-.14.84-.348 1.145-.624a2.81 2.81 0 0 0 .699-.977 3.19 3.19 0 0 0 .253-1.17 3.93 3.93 0 0 0-.178-1.253l-2.796.858.21.688Zm17.128-4.937 2.81.21.053-.719-2.81-.21-.053.719Zm-.187 2.513 2.72.203.053-.718-2.72-.203-.053.718Zm-.181-3.263-.469 6.283.763.057.469-6.283-.763-.057Zm8.357 5.7 3.213.875-.071-.766-2.692-.733-.45.624Zm2.374-2.45.375 2.732.023.193.318 2.325.825.225-1.085-7.151-4.56 5.614.825.225 1.485-1.89.112-.138 1.682-2.135Zm6.875 5.745-.732.093c-.002.309.039.622.12.939.09.314.23.603.42.867.197.261.448.469.754.623a2.068 2.068 0 0 0 1.415.17 1.694 1.694 0 0 0 1.123-.904 1.634 1.634 0 0 0 .082-1.38 2.18 2.18 0 0 0-.29-.561 4.384 4.384 0 0 0-.37-.448 5.011 5.011 0 0 1-.608-.731c-.128-.213-.2-.404-.215-.573a.928.928 0 0 1 .099-.495.771.771 0 0 1 .456-.384c.215-.08.475-.042.78.112.22.11.383.247.49.409.112.164.188.34.227.528.04.188.059.369.058.543l.757-.04a2.471 2.471 0 0 0-.093-.754 2.084 2.084 0 0 0-.364-.738 1.895 1.895 0 0 0-.706-.578 2.013 2.013 0 0 0-.94-.234 1.591 1.591 0 0 0-.839.222 1.53 1.53 0 0 0-.586.642c-.13.257-.191.498-.184.723.012.229.065.443.158.645.096.196.21.378.34.545.133.161.258.301.373.42.176.183.334.37.472.561.147.189.241.388.284.597.041.21-.001.44-.128.692a.92.92 0 0 1-.594.497c-.266.074-.549.035-.849-.117a1.385 1.385 0 0 1-.53-.449 1.894 1.894 0 0 1-.278-.645 4.957 4.957 0 0 1-.102-.797Zm8.747 3.944 3.387 2.682.447-.564-3.387-2.682-.447.564Zm4.996-.176-3.911 4.939.6.475 3.91-4.939-.599-.475Zm-3.316-2.626-3.911 4.938.6.475 3.91-4.938-.599-.475Zm8.111 7.455-4.78 4.104.498.58 4.78-4.103-.498-.58Zm2.883 9.185c.412-.234.83-.355 1.254-.362a2.325 2.325 0 0 1 2.077 1.209 2.295 2.295 0 0 1-.022 2.396 2.539 2.539 0 0 1-.946.902 2.538 2.538 0 0 1-1.259.355 2.3 2.3 0 0 1-2.073-1.201 2.332 2.332 0 0 1 .018-2.404c.222-.361.54-.66.951-.894Zm-.401-.703a3.455 3.455 0 0 0-.994.836 3.187 3.187 0 0 0-.565 1.1 3.23 3.23 0 0 0-.09 1.222c.052.419.19.826.417 1.222a3.2 3.2 0 0 0 .84.983c.338.255.704.437 1.097.544.398.105.808.127 1.23.066a3.344 3.344 0 0 0 1.23-.422 3.31 3.31 0 0 0 .99-.844c.266-.331.454-.694.561-1.086.113-.396.143-.804.091-1.223a3.143 3.143 0 0 0-.41-1.227 3.176 3.176 0 0 0-.847-.977c-.334-.26-.7-.44-1.098-.545a3.085 3.085 0 0 0-1.226-.079 3.412 3.412 0 0 0-1.226.43Zm9.15 13.348-4.472 1.41 3.337-6.054-6.308 1.99.23.729 4.472-1.41-3.338 6.054 6.309-1.99-.23-.73Z" fill="#fff"/><circle cx="104" cy="64" r="2" fill="#fff"/></svg>