<svg width="112" height="113" viewBox="0 0 112 113" fill="none" xmlns="http://www.w3.org/2000/svg">
<path d="M102.332 81.2782L96.943 78.0158L96.5469 78.6702L101.936 81.9327L102.332 81.2782ZM100.655 84.05L99.5168 80.1945L95.1953 80.903L94.7059 81.7114L99.0521 80.9968L100.165 84.8584L100.655 84.05Z" fill="white"/>
<path d="M90.9078 85.2185L90.7406 84.5244C90.664 84.5189 90.5647 84.5334 90.443 84.5679C90.3208 84.5939 90.1912 84.6457 90.0542 84.7232C89.9167 84.7923 89.7951 84.884 89.6892 84.9986C89.5466 85.1527 89.4403 85.3119 89.3703 85.476C89.2918 85.6404 89.2558 85.8074 89.2624 85.9769C89.2691 86.1465 89.3181 86.3144 89.4095 86.4807C89.4968 86.6514 89.6308 86.8202 89.8114 86.9872L94.8331 91.6314L95.3219 91.1028L90.3663 86.5197C90.1505 86.3201 90.0454 86.1289 90.051 85.9461C90.0481 85.7637 90.0935 85.6218 90.1872 85.5205C90.2972 85.4015 90.415 85.3184 90.5405 85.271C90.6657 85.2152 90.7881 85.1977 90.9078 85.2185Z" fill="white"/>
<path d="M86.5273 95.0203C86.8077 95.4025 86.9757 95.8039 87.0313 96.2245C87.0821 96.6486 87.0263 97.0542 86.8638 97.4414C86.7013 97.8285 86.4363 98.1569 86.0686 98.4267C85.6962 98.7 85.3033 98.8543 84.8901 98.8896C84.4721 98.9284 84.0708 98.8582 83.6863 98.679C83.2969 98.5033 82.962 98.2244 82.6816 97.8423C82.4012 97.4601 82.2356 97.0569 82.1848 96.6328C82.1292 96.2122 82.1826 95.8083 82.3451 95.4212C82.5027 95.0376 82.7677 94.7092 83.1402 94.4359C83.5079 94.1661 83.9007 94.0118 84.3187 93.973C84.7368 93.9341 85.1405 94.0026 85.5298 94.1782C85.9144 94.3575 86.2469 94.6382 86.5273 95.0203ZM87.1803 94.5411C86.9106 94.1735 86.5957 93.8762 86.2356 93.6492C85.8707 93.4258 85.4852 93.2807 85.0791 93.2141C84.6765 93.1523 84.2683 93.169 83.8545 93.2643C83.4442 93.3644 83.0553 93.5493 82.6876 93.8191C82.3152 94.0924 82.0221 94.408 81.8083 94.7658C81.5933 95.1319 81.4548 95.5163 81.393 95.9189C81.3348 96.3263 81.3599 96.7358 81.4684 97.1473C81.572 97.5624 81.7588 97.9538 82.0285 98.3214C82.3018 98.6939 82.6192 98.9895 82.9805 99.2081C83.3405 99.435 83.7219 99.5794 84.1244 99.6412C84.5306 99.7079 84.9388 99.6912 85.349 99.591C85.758 99.4993 86.1487 99.3168 86.5212 99.0435C86.8889 98.7737 87.1802 98.4557 87.3952 98.0896C87.6138 97.7282 87.7523 97.3439 87.8105 96.9364C87.8723 96.5339 87.8514 96.125 87.7477 95.7099C87.6428 95.3032 87.4537 94.9136 87.1803 94.5411ZM84.6082 100.894L85.2636 91.9289L84.6297 91.9475L83.9671 100.918L84.6082 100.894Z" fill="white"/>
<path d="M79.4175 103.141L76.7246 97.4458L73.7955 98.8306L74.1033 99.4816L76.3408 98.4237L78.7259 103.468L79.4175 103.141Z" fill="white"/>
<path d="M71.1161 106.375L69.4264 100.306L68.6895 100.511L70.3792 106.58L71.1161 106.375Z" fill="white"/>
<path d="M59.0361 104.607L56.9442 104.753C56.981 104.504 57.0517 104.267 57.1564 104.044C57.2552 103.82 57.3885 103.618 57.5564 103.438C57.7243 103.258 57.9306 103.112 58.1753 102.998C58.4145 102.891 58.6897 102.827 59.0009 102.805C59.4438 102.775 59.8521 102.851 60.2259 103.036C60.5996 103.22 60.9071 103.491 61.1484 103.847C61.3837 104.203 61.5183 104.624 61.552 105.109C61.5862 105.6 61.5112 106.035 61.3272 106.415C61.1375 106.801 60.8704 107.111 60.5259 107.346C60.1813 107.58 59.7876 107.713 59.3447 107.744C58.8658 107.777 58.4432 107.71 58.0767 107.543C57.7106 107.382 57.4172 107.141 57.1963 106.82L56.692 107.351C56.892 107.632 57.1305 107.862 57.4076 108.041C57.6788 108.22 57.9825 108.35 58.3188 108.428C58.6491 108.508 59.0087 108.534 59.3978 108.507C59.8527 108.475 60.2691 108.365 60.6469 108.176C61.0251 107.993 61.3476 107.745 61.6145 107.432C61.8818 107.125 62.0825 106.768 62.2166 106.362C62.3448 105.956 62.3926 105.519 62.3601 105.053C62.3276 104.586 62.2198 104.16 62.0366 103.776C61.8475 103.392 61.5991 103.064 61.2914 102.79C60.9841 102.523 60.6303 102.322 60.23 102.188C59.8301 102.059 59.4027 102.011 58.9478 102.042C58.4689 102.076 58.05 102.192 57.691 102.391C57.3264 102.597 57.026 102.862 56.7899 103.185C56.5538 103.508 56.3834 103.869 56.2788 104.267C56.1747 104.671 56.1378 105.092 56.1682 105.529L59.0861 105.326L59.0361 104.607Z" fill="white"/>
<path d="M41.2349 105.542L38.546 104.702L38.3314 105.389L41.0204 106.229L41.2349 105.542ZM41.986 103.136L39.383 102.323L39.1684 103.011L41.7714 103.823L41.986 103.136ZM41.4241 106.355L43.3018 100.341L42.5716 100.113L40.6939 106.127L41.4241 106.355Z" fill="white"/>
<path d="M34.5731 98.9118L31.6413 97.3328L31.5376 98.0948L33.994 99.4177L34.5731 98.9118ZM31.7062 100.762L31.9588 98.0149L31.9808 97.8223L32.1967 95.4853L31.444 95.0799L30.8825 102.291L36.5945 97.8538L35.8417 97.4484L33.9678 98.9538L33.8276 99.0623L31.7062 100.762Z" fill="white"/>
<path d="M26.3089 93.6103L27.044 93.685C27.115 93.3848 27.1466 93.071 27.1385 92.7437C27.1221 92.4172 27.0514 92.104 26.9266 91.8043C26.7933 91.5053 26.5955 91.2461 26.333 91.0268C26.1396 90.8652 25.9285 90.7436 25.6997 90.6618C25.4663 90.5763 25.2305 90.5356 24.9923 90.5399C24.7496 90.5404 24.5179 90.5931 24.2973 90.698C24.072 90.7991 23.871 90.9556 23.694 91.1674C23.5093 91.3884 23.3907 91.6099 23.3382 91.8318C23.2818 92.0584 23.2696 92.2788 23.3016 92.4932C23.3251 92.7083 23.3775 92.9124 23.4587 93.1053C23.5398 93.2982 23.6257 93.4716 23.7161 93.6253C23.9162 93.9567 24.0587 94.24 24.1436 94.4752C24.2202 94.7111 24.2468 94.9132 24.2235 95.0814C24.1964 95.2542 24.1271 95.4074 24.0155 95.5409C23.8847 95.6975 23.7075 95.7879 23.4839 95.8122C23.2565 95.8411 23.0115 95.7459 22.7491 95.5266C22.5603 95.3688 22.4322 95.1993 22.3649 95.0179C22.2929 94.8327 22.259 94.644 22.2631 94.452C22.2672 94.2599 22.2893 94.079 22.3295 93.9093L21.5829 93.7781C21.5189 94.0139 21.4924 94.2654 21.5036 94.5328C21.5109 94.8047 21.5732 95.0718 21.6904 95.3339C21.7991 95.5968 21.9847 95.8378 22.2471 96.0571C22.5188 96.2841 22.8067 96.4308 23.1108 96.4973C23.4111 96.5684 23.6999 96.5595 23.9774 96.4708C24.2548 96.382 24.4936 96.218 24.6936 95.9785C24.8783 95.7575 24.9927 95.5364 25.0368 95.3152C25.0762 95.0902 25.0734 94.869 25.0284 94.6515C24.9795 94.4386 24.9103 94.2361 24.8206 94.0439C24.7272 93.8564 24.6379 93.6919 24.5528 93.5504C24.4225 93.332 24.3114 93.1141 24.2195 92.8966C24.1191 92.6798 24.0722 92.4646 24.0786 92.2511C24.085 92.0375 24.1786 91.8225 24.3595 91.6061C24.5441 91.3851 24.7744 91.2687 25.0502 91.2567C25.326 91.2448 25.5928 91.3466 25.8506 91.562C26.044 91.7236 26.182 91.9093 26.2647 92.1191C26.3474 92.329 26.3894 92.5595 26.3906 92.8107C26.3872 93.0581 26.3599 93.3246 26.3089 93.6103Z" fill="white"/>
<path d="M18.6813 87.7894L15.9894 84.4106L15.4263 84.8593L18.1181 88.2381L18.6813 87.7894ZM13.775 86.8307L18.7024 82.9051L18.2257 82.3068L13.2983 86.2324L13.775 86.8307ZM16.4107 90.1392L21.3382 86.2135L20.8615 85.6152L15.9341 89.5408L16.4107 90.1392Z" fill="white"/>
<path d="M10.1974 81.0422L15.7816 78.1255L15.4275 77.4475L9.84326 80.3641L10.1974 81.0422Z" fill="white"/>
<path d="M9.46676 71.4424C9.01254 71.5779 8.57804 71.6011 8.16324 71.512C7.74673 71.4171 7.38352 71.2281 7.07361 70.9448C6.76371 70.6616 6.54357 70.3015 6.4132 69.8646C6.28112 69.4219 6.26797 69 6.37375 68.599C6.47781 68.1923 6.67892 67.838 6.97707 67.5362C7.2735 67.2286 7.64883 67.007 8.10304 66.8715C8.55726 66.736 8.99262 66.7157 9.40913 66.8106C9.82393 66.8997 10.1863 67.0859 10.4962 67.3691C10.8044 67.6466 11.0245 68.0067 11.1566 68.4494C11.287 68.8864 11.3001 69.3082 11.1961 69.7149C11.092 70.1217 10.8917 70.4788 10.5953 70.7864C10.2972 71.0882 9.92097 71.3069 9.46676 71.4424ZM9.69833 72.2186C10.1353 72.0883 10.5212 71.8917 10.8561 71.629C11.1892 71.3606 11.4555 71.0463 11.6549 70.6863C11.8486 70.328 11.9701 69.9379 12.0196 69.5162C12.0633 69.0962 12.02 68.6676 11.8897 68.2307C11.7576 67.788 11.559 67.4058 11.294 67.0841C11.0215 66.7584 10.7061 66.4988 10.3478 66.3051C9.98374 66.1132 9.58967 65.9991 9.1656 65.9628C8.73981 65.9208 8.30844 65.965 7.87147 66.0953C7.42875 66.2274 7.04369 66.4268 6.71628 66.6936C6.38141 66.9563 6.11715 67.2668 5.92351 67.6251C5.72412 67.9851 5.60256 68.3752 5.55882 68.7952C5.50761 69.2112 5.54805 69.6406 5.68013 70.0833C5.8105 70.5202 6.01193 70.9016 6.28442 71.2273C6.55115 71.5547 6.86655 71.8143 7.23062 72.0063C7.58894 72.1999 7.98099 72.3177 8.40677 72.3598C8.8251 72.3978 9.25562 72.3507 9.69833 72.2186Z" fill="white"/>
<path d="M3.80554 57.147L8.48054 56.7849L3.85976 61.9271L10.455 61.4163L10.3959 60.6536L5.72094 61.0156L10.3417 55.8735L3.74648 56.3843L3.80554 57.147Z" fill="white"/>
<path d="M5.76891 41.9494L11.7567 43.908L11.9946 43.1809L6.00675 41.2223L5.76891 41.9494ZM6.7762 38.8699L8.75682 42.368L12.806 40.7002L13.0998 39.802L9.02791 41.4814L7.06999 37.9718L6.7762 38.8699Z" fill="white"/>
<path d="M16.0059 35.5268L16.3258 36.1651C16.4017 36.1531 16.4951 36.1165 16.6059 36.0554C16.719 36.0024 16.8335 35.9227 16.9495 35.8162C17.0677 35.7178 17.1655 35.6009 17.2427 35.4653C17.3467 35.2829 17.4143 35.1039 17.4454 34.9282C17.4846 34.7503 17.4818 34.5795 17.437 34.4158C17.3922 34.2521 17.3065 34.0996 17.1798 33.9584C17.0561 33.8119 16.8874 33.6777 16.6737 33.5559L10.7316 30.1682L10.375 30.7937L16.2389 34.1368C16.4944 34.2824 16.64 34.4449 16.6759 34.6242C16.72 34.8013 16.7079 34.9498 16.6395 35.0696C16.5593 35.2104 16.4634 35.318 16.3518 35.3925C16.2425 35.4753 16.1272 35.52 16.0059 35.5268Z" fill="white"/>
<path d="M18.0553 24.9879C17.6957 24.6791 17.4412 24.3261 17.2919 23.929C17.1465 23.5273 17.1091 23.1196 17.1798 22.7057C17.2505 22.2919 17.4343 21.912 17.7314 21.5661C18.0324 21.2156 18.3801 20.9764 18.7746 20.8485C19.173 20.7161 19.5798 20.6937 19.9949 20.7813C20.414 20.8644 20.8033 21.0603 21.1629 21.3691C21.5225 21.6779 21.775 22.0331 21.9204 22.4348C22.0697 22.8319 22.1091 23.2374 22.0384 23.6512C21.9716 24.0605 21.7878 24.4404 21.4868 24.7909C21.1897 25.1369 20.842 25.376 20.4436 25.5084C20.0451 25.6408 19.6364 25.6655 19.2174 25.5825C18.8023 25.4949 18.4149 25.2967 18.0553 24.9879ZM17.5276 25.6024C17.8735 25.8995 18.2475 26.1178 18.6496 26.2575C19.0556 26.3926 19.4639 26.4466 19.8746 26.4197C20.2807 26.3888 20.6745 26.2802 21.0561 26.0937C21.433 25.9034 21.7701 25.6352 22.0672 25.2893C22.3681 24.9388 22.5823 24.5651 22.7095 24.1682C22.8362 23.7629 22.884 23.3572 22.8532 22.9511C22.8178 22.541 22.7006 22.1479 22.5018 21.7715C22.307 21.3906 22.0365 21.0516 21.6906 20.7546C21.3401 20.4536 20.9641 20.2375 20.5627 20.1063C20.1607 19.9667 19.7566 19.9123 19.3504 19.9432C18.9398 19.9701 18.5459 20.0788 18.169 20.2691C17.7913 20.451 17.452 20.7172 17.151 21.0677C16.854 21.4136 16.6421 21.7893 16.5155 22.1946C16.3843 22.596 16.3364 23.0017 16.3718 23.4118C16.4027 23.8179 16.5156 24.2114 16.7105 24.5923C16.9047 24.9647 17.1771 25.3014 17.5276 25.6024ZM18.5959 18.8325L19.9857 27.7132L20.5988 27.5517L19.2149 18.6642L18.5959 18.8325Z" fill="white"/>
<path d="M23.1436 15.469L27.0552 20.4076L29.595 18.396L29.148 17.8316L27.2078 19.3683L23.7433 14.9941L23.1436 15.469Z" fill="white"/>
<path d="M30.498 10.4411L33.5169 15.9706L34.1884 15.604L31.1694 10.0745L30.498 10.4411Z" fill="white"/>
<path d="M42.6648 9.42992L44.6695 8.81479C44.6901 9.06581 44.6747 9.31216 44.6233 9.55386C44.5777 9.7938 44.4935 10.0205 44.3707 10.2339C44.2479 10.4473 44.0801 10.6369 43.8673 10.8025C43.6586 10.9608 43.405 11.0856 43.1068 11.1771C42.6823 11.3074 42.2672 11.3249 41.8614 11.2298C41.4556 11.1346 41.095 10.9409 40.7793 10.6486C40.4695 10.3546 40.2432 9.97525 40.1007 9.51063C39.9563 9.04027 39.9309 8.59934 40.0243 8.18784C40.1217 7.76885 40.3116 7.40617 40.5942 7.0998C40.8767 6.79344 41.2303 6.57514 41.6547 6.44489C42.1136 6.30409 42.5404 6.27354 42.9352 6.35326C43.3282 6.42723 43.6686 6.59579 43.9564 6.85893L44.3275 6.2273C44.0692 5.99903 43.7848 5.82898 43.4743 5.71713C43.1696 5.60352 42.8445 5.54636 42.4991 5.54565C42.1594 5.54318 41.8032 5.59914 41.4303 5.71355C40.9944 5.84731 40.6138 6.04883 40.2884 6.3181C39.9614 6.58164 39.7033 6.89619 39.5142 7.26173C39.3233 7.62155 39.2085 8.0145 39.1698 8.4406C39.1369 8.86494 39.189 9.30082 39.3263 9.74823C39.4636 10.1956 39.6649 10.5858 39.9302 10.9186C40.2012 11.2496 40.5175 11.5135 40.8791 11.71C41.2389 11.9009 41.629 12.0166 42.0493 12.057C42.468 12.0918 42.8952 12.0422 43.3312 11.9085C43.79 11.7677 44.1718 11.5595 44.4764 11.2841C44.785 11.0011 45.0177 10.6755 45.1746 10.3073C45.3315 9.93908 45.4158 9.54919 45.4276 9.13762C45.4376 8.72032 45.3784 8.30231 45.2499 7.88358L42.4536 8.74159L42.6648 9.42992Z" fill="white"/>
<path d="M59.7931 4.49276L62.6023 4.70223L62.6558 3.98422L59.8466 3.77475L59.7931 4.49276ZM59.6057 7.00578L62.3251 7.20856L62.3787 6.49056L59.6592 6.28777L59.6057 7.00578ZM59.4248 3.7433L58.9563 10.0259L59.7192 10.0827L60.1877 3.80018L59.4248 3.7433Z" fill="white"/>
<path d="M67.782 9.44322L70.995 10.318L70.9237 9.55237L68.2317 8.81943L67.782 9.44322ZM70.1561 6.99283L70.5314 9.72541L70.5536 9.918L70.8719 12.2433L71.6969 12.4679L70.6124 5.31684L66.0524 10.9311L66.8774 11.1557L68.3621 9.26536L68.4741 9.12797L70.1561 6.99283Z" fill="white"/>
<path d="M77.0315 12.7379L76.2986 12.8314C76.2973 13.14 76.3376 13.4528 76.4194 13.7697C76.5093 14.0841 76.649 14.3731 76.8384 14.6369C77.0359 14.898 77.2872 15.1056 77.5925 15.2599C77.8174 15.3735 78.0505 15.4442 78.2919 15.4721C78.5387 15.5026 78.7775 15.4889 79.0085 15.4308C79.2449 15.3755 79.4587 15.2717 79.6498 15.1196C79.8463 14.9701 80.0068 14.7722 80.1313 14.5259C80.2612 14.2688 80.3266 14.0263 80.3275 13.7982C80.3312 13.5648 80.2932 13.3473 80.2135 13.1457C80.1419 12.9414 80.0448 12.7545 79.9221 12.585C79.7993 12.4154 79.6765 12.266 79.5537 12.1367C79.2838 11.8592 79.0809 11.6155 78.9449 11.4056C78.817 11.1931 78.7454 11.0023 78.73 10.8332C78.7173 10.6587 78.7502 10.4938 78.8287 10.3385C78.9206 10.1564 79.0728 10.0283 79.2851 9.95402C79.5001 9.87442 79.7602 9.91173 80.0655 10.066C80.285 10.1769 80.4481 10.3131 80.5548 10.4745C80.6668 10.6387 80.7425 10.8148 80.782 11.0028C80.8215 11.1908 80.8408 11.372 80.8401 11.5464L81.597 11.5053C81.606 11.2611 81.5749 11.0101 81.5035 10.7522C81.4349 10.489 81.3138 10.2429 81.1403 10.0141C80.9749 9.78266 80.7396 9.58982 80.4344 9.43559C80.1184 9.27595 79.8048 9.19816 79.4935 9.20222C79.1849 9.20093 78.9056 9.27489 78.6554 9.42411C78.4052 9.57332 78.2098 9.78717 78.0691 10.0656C77.9392 10.3227 77.8778 10.5639 77.8849 10.7894C77.8974 11.0175 77.9501 11.2324 78.0432 11.434C78.139 11.6303 78.2523 11.8119 78.3831 11.9788C78.5165 12.1404 78.6407 12.2804 78.7556 12.399C78.9319 12.5822 79.0895 12.7693 79.2282 12.9604C79.375 13.1489 79.4694 13.3478 79.5115 13.5573C79.5535 13.7668 79.511 13.9974 79.3838 14.2491C79.2539 14.5061 79.056 14.6716 78.79 14.7457C78.5241 14.8197 78.2412 14.7809 77.9413 14.6294C77.7163 14.5158 77.5399 14.3661 77.4119 14.1804C77.2838 13.9947 77.1908 13.7797 77.1328 13.5353C77.0802 13.2935 77.0464 13.0277 77.0315 12.7379Z" fill="white"/>
<path d="M85.7781 16.6822L89.1646 19.3644L89.6116 18.8L86.2251 16.1178L85.7781 16.6822ZM90.7741 16.506L86.8626 21.4446L87.4622 21.9196L91.3738 16.981L90.7741 16.506ZM87.4582 13.8797L83.5466 18.8183L84.1463 19.2933L88.0579 14.3547L87.4582 13.8797Z" fill="white"/>
<path d="M95.5685 21.3352L90.7889 25.4395L91.2873 26.0199L96.0669 21.9155L95.5685 21.3352Z" fill="white"/>
<path d="M98.4521 30.5209C98.8639 30.2861 99.2819 30.1652 99.7061 30.1582C100.133 30.1564 100.53 30.2584 100.896 30.4641C101.262 30.6699 101.558 30.9709 101.783 31.367C102.012 31.7684 102.121 32.1763 102.108 32.5908C102.099 33.0105 101.983 33.4011 101.761 33.7626C101.542 34.1293 101.226 34.43 100.815 34.6647C100.403 34.8995 99.9833 35.0178 99.5561 35.0196C99.1319 35.0266 98.7368 34.9272 98.3709 34.7215C98.0079 34.5209 97.712 34.22 97.4832 33.8186C97.2574 33.4225 97.1491 33.0145 97.1585 32.5948C97.1678 32.1751 97.2821 31.7819 97.5012 31.4152C97.7234 31.0537 98.0403 30.7556 98.4521 30.5209ZM98.0509 29.8172C97.6548 30.043 97.3233 30.3218 97.0566 30.6534C96.7928 30.9903 96.6045 31.3566 96.4917 31.7524C96.3842 32.1453 96.354 32.5527 96.4012 32.9747C96.4536 33.3938 96.5928 33.8014 96.8186 34.1975C97.0474 34.5989 97.3273 34.9262 97.6582 35.1796C97.9973 35.4352 98.3633 35.6168 98.7561 35.7243C99.1542 35.8289 99.5638 35.8509 99.9851 35.7903C100.409 35.7349 100.82 35.5943 101.216 35.3684C101.617 35.1396 101.947 34.8582 102.206 34.5244C102.472 34.1927 102.66 33.8305 102.767 33.4376C102.88 33.0418 102.91 32.6344 102.858 32.2154C102.813 31.7986 102.677 31.3895 102.448 30.9881C102.222 30.592 101.94 30.2661 101.601 30.0105C101.267 29.7519 100.901 29.5703 100.503 29.4658C100.11 29.3582 99.7013 29.3321 99.2771 29.3875C98.861 29.4452 98.4523 29.5884 98.0509 29.8172Z" fill="white"/>
<path d="M107.201 43.1646L102.729 44.5748L106.066 38.5207L99.7577 40.5102L99.9878 41.2398L104.46 39.8295L101.122 45.8837L107.431 43.8941L107.201 43.1646Z" fill="white"/>
<circle cx="104" cy="64" r="2" fill="white"/>
</svg>
